<?xml version="1.0" standalone="no"?>
<!DOCTYPE svg PUBLIC "-//W3C//DTD SVG 20010904//EN"
 "http://www.w3.org/TR/2001/REC-SVG-20010904/DTD/svg10.dtd">
<svg version="1.0" xmlns="http://www.w3.org/2000/svg"
 width="2953.000000pt" height="2835.000000pt" viewBox="0 0 2953.000000 2835.000000"
 preserveAspectRatio="xMidYMid meet">
<metadata>
Created by potrace 1.15, written by Peter Selinger 2001-2017
</metadata>
<g transform="translate(0.000000,2835.000000) scale(0.100000,-0.100000)"
fill="#000000" stroke="none">
<path d="M6492 27239 c-936 -51 -1886 -288 -2647 -659 -750 -366 -1414 -914
-1910 -1575 -1134 -1512 -1477 -3693 -979 -6220 435 -2210 1450 -4534 2990
-6851 l193 -290 -593 -2250 -592 -2249 2534 -3 2534 -2 137 -128 c3656 -3398
7949 -5571 11591 -5867 1553 -126 2916 96 4040 656 406 203 717 405 1060 689
161 133 517 489 650 650 419 506 740 1074 967 1710 61 173 153 471 153 499 0
22 -325 544 -370 594 -4 5 -47 -13 -95 -40 -82 -45 -93 -55 -163 -148 -756
-1004 -1746 -1643 -2967 -1915 -507 -113 -969 -156 -1595 -147 -466 7 -748 29
-1218 98 -2208 323 -4910 1437 -7702 3177 -243 151 -949 615 -1132 744 l-77
54 107 53 c598 297 1113 731 1465 1235 34 48 69 97 77 108 14 18 26 11 242
-149 1326 -983 2276 -1626 3308 -2240 931 -554 1881 -1032 2712 -1364 1091
-436 2094 -684 3028 -749 199 -14 684 -14 865 0 908 70 1681 325 2385 788 144
94 339 238 415 306 36 32 24 28 -135 -48 -847 -407 -1503 -537 -2215 -440
-124 17 -547 93 -554 99 -2 3 50 60 115 128 65 67 194 206 285 307 779 864
1304 1602 1498 2104 l41 108 -58 79 -58 78 -45 -91 c-179 -370 -547 -763 -951
-1017 -454 -285 -1036 -478 -1688 -560 -1037 -130 -2240 -1 -3575 384 -249 72
-786 247 -770 251 6 1 100 8 210 14 1655 91 2993 759 3875 1935 366 488 655
1052 875 1706 l66 197 -75 106 -76 106 104 0 104 0 11 33 c27 86 981 3598 981
3614 0 13 234 -473 315 -657 521 -1172 846 -2334 951 -3391 l17 -174 66 -29
c36 -17 164 -77 284 -135 119 -57 219 -102 222 -100 11 12 48 284 68 507 21
237 23 245 39 220 9 -14 23 -32 31 -40 46 -46 327 -421 327 -437 0 -56 -77
-455 -131 -683 l-40 -167 -122 65 c-182 97 -654 332 -802 398 -384 173 -716
289 -1015 355 -120 27 -392 72 -398 66 -2 -2 34 -48 80 -102 233 -271 580
-716 1098 -1408 355 -474 535 -707 630 -815 l58 -65 -23 -90 c-117 -451 -394
-978 -794 -1513 -230 -307 -460 -571 -700 -805 l-150 -146 68 -15 c278 -63
594 -55 921 25 409 100 883 334 1342 662 83 59 154 104 157 100 3 -5 39 -53
80 -107 159 -212 349 -510 499 -782 90 -163 303 -596 418 -846 54 -120 102
-218 105 -218 3 0 11 73 18 162 53 725 70 1273 53 1734 -11 301 -20 442 -37
595 l-7 57 139 93 c268 182 427 322 603 534 62 75 116 132 120 128 3 -4 39
-51 80 -103 40 -52 76 -99 80 -103 8 -9 260 255 260 272 0 10 -545 521 -894
839 -186 169 -203 182 -238 182 -37 0 -38 1 -38 34 0 35 -22 57 -250 248 l-55
46 -19 124 c-51 342 -148 826 -237 1182 -225 899 -567 1715 -930 2221 -83 116
-168 219 -176 212 -3 -4 -52 -710 -53 -762 0 -5 -44 100 -99 235 -338 840
-720 1630 -1199 2480 -122 217 -406 697 -453 766 l-27 40 104 390 c269 998
817 3047 1240 4634 256 960 473 1776 483 1813 l18 68 -2796 -4 c-2029 -3
-2837 -7 -2946 -15 -715 -57 -1151 -126 -1657 -263 l-187 -50 -143 118 c-650
540 -1401 1100 -2113 1578 -2885 1934 -5884 3077 -8475 3230 -265 16 -890 18
-1148 4z m3073 -2303 c1524 -135 3135 -628 4985 -1528 737 -358 1663 -878
2457 -1379 114 -72 223 -140 241 -151 17 -11 32 -23 32 -26 0 -4 -51 -38 -113
-75 -147 -89 -332 -221 -480 -343 -191 -158 -468 -452 -603 -638 l-20 -28 -18
108 c-109 672 -482 1177 -1081 1465 -312 149 -622 227 -998 248 -95 6 -883 12
-1752 15 -1591 6 -3896 21 -4730 31 l-450 5 -449 -1707 c-247 -940 -474 -1802
-505 -1916 -35 -134 -57 -203 -63 -194 -4 8 -41 102 -82 208 -506 1320 -707
2472 -590 3390 88 696 349 1262 785 1698 184 183 347 305 538 400 437 220
1058 375 1681 421 80 5 165 12 190 14 116 10 857 -4 1025 -18z m-6212 -641
c-11 -92 -16 -235 -16 -490 -1 -386 8 -512 59 -845 208 -1358 932 -2874 2222
-4655 80 -110 158 -218 174 -240 l29 -41 -311 -1179 -311 -1180 31 -90 c75
-214 274 -735 279 -729 3 3 431 1626 951 3607 l945 3602 3135 -3 c1772 -2
3202 -8 3290 -13 651 -39 1036 -253 1255 -697 77 -157 130 -345 162 -572 21
-153 23 -579 5 -775 -47 -493 -122 -851 -453 -2175 -669 -2681 -1761 -6679
-2013 -7371 -122 -338 -297 -651 -520 -934 -102 -129 -382 -409 -513 -513
-753 -595 -1768 -926 -3068 -1002 -237 -14 -4965 -14 -4965 0 0 16 1149 4393
1155 4398 12 13 237 23 380 18 308 -11 560 -66 869 -188 188 -74 486 -234 691
-371 71 -47 76 -54 -121 158 -334 359 -717 794 -1035 1175 -218 261 -426 520
-447 558 -7 13 -109 143 -226 290 -305 383 -525 686 -843 1162 -1161 1740
-1858 3387 -2067 4885 -50 357 -60 514 -61 920 0 388 6 492 46 785 137 996
552 1875 1196 2533 58 59 107 106 108 105 2 -2 -4 -61 -12 -133z m21669 -2232
c-2 -10 -34 -137 -72 -283 -38 -146 -146 -564 -240 -930 -343 -1330 -1048
-4044 -1109 -4270 l-18 -65 -1767 -3 c-1680 -2 -1767 -1 -1762 15 3 10 68 263
146 563 461 1778 590 2239 727 2585 160 406 365 688 634 872 l71 48 -78 8
c-88 9 -321 2 -447 -14 -639 -79 -1144 -415 -1517 -1011 -119 -190 -254 -476
-337 -713 -82 -235 -115 -355 -893 -3285 -675 -2540 -1039 -3881 -1220 -4495
-87 -293 -280 -861 -342 -1006 -116 -270 -235 -409 -437 -511 l-76 -39 290 5
c374 5 585 34 825 112 407 133 708 389 929 787 138 250 406 1123 865 2822 109
404 356 1335 356 1341 0 2 795 4 1766 4 1677 0 1765 -1 1760 -17 -3 -10 -93
-344 -200 -743 -467 -1742 -735 -2690 -845 -2999 -208 -582 -570 -1139 -1051
-1621 -245 -246 -497 -454 -772 -638 -415 -277 -875 -480 -1243 -548 -95 -18
-178 -19 -1685 -16 l-1585 3 -290 144 c-475 236 -995 527 -1445 808 -242 151
-665 431 -675 447 -16 25 53 347 175 820 49 190 123 494 165 675 144 620 582
2351 921 3645 514 1957 1027 3806 1251 4505 253 792 781 1490 1530 2023 289
205 705 434 1040 570 602 245 1270 395 1878 420 88 4 1200 6 2470 5 2224 -2
2310 -2 2307 -20z m1399 -10612 c297 -498 552 -1330 704 -2296 21 -129 42
-233 48 -237 41 -22 348 -248 487 -357 206 -162 371 -303 567 -483 l152 -141
-22 -27 c-247 -305 -388 -450 -577 -591 -85 -64 -292 -205 -327 -223 -1 -1 4
-64 12 -140 30 -295 38 -583 32 -1091 -4 -275 -11 -567 -16 -650 -6 -82 -16
-234 -22 -337 -7 -104 -15 -188 -18 -188 -3 0 -39 73 -80 163 -295 643 -583
1149 -888 1554 -48 65 -91 122 -94 127 -4 5 -62 -32 -130 -81 -570 -413 -1051
-640 -1554 -735 -101 -19 -155 -22 -340 -23 -143 0 -249 5 -303 14 l-84 14
164 166 c250 254 421 452 635 738 363 485 626 966 762 1393 36 114 61 211 61
236 0 11 -26 48 -58 84 -106 122 -216 263 -644 832 -488 650 -732 966 -948
1227 -83 100 -150 185 -148 186 6 6 269 -45 393 -76 422 -106 928 -322 1638
-696 120 -64 220 -113 223 -110 9 8 73 273 110 451 84 412 146 863 180 1325 8
109 3 110 85 -28z m1070 -2508 c194 -252 358 -461 364 -465 5 -4 6 -8 2 -8 -5
0 -52 35 -105 78 -122 99 -350 269 -464 346 l-86 58 -12 82 c-13 98 -48 312
-55 344 -3 12 -3 22 -1 22 3 0 164 -206 357 -457z"/>
<path d="M10470 20518 c-118 -5 -241 -12 -273 -16 l-57 -7 105 -114 c59 -64
116 -137 130 -166 37 -75 48 -159 35 -271 -20 -185 -59 -347 -281 -1169 -134
-496 -372 -1386 -859 -3220 -1002 -3771 -1259 -4685 -1497 -5330 -139 -377
-264 -542 -498 -657 l-80 -40 295 5 c313 5 433 17 640 63 336 76 591 208 805
421 153 152 288 352 377 558 253 584 1009 3297 2022 7255 419 1638 445 1759
446 2038 0 452 -182 615 -730 652 -164 11 -273 11 -580 -2z"/>
</g>
</svg>
