<?xml version="1.0" standalone="no"?>
<!DOCTYPE svg PUBLIC "-//W3C//DTD SVG 20010904//EN"
 "http://www.w3.org/TR/2001/REC-SVG-20010904/DTD/svg10.dtd">
<svg version="1.0" xmlns="http://www.w3.org/2000/svg"
 width="974.000000pt" height="660.000000pt" viewBox="0 0 974.000000 660.000000"
 preserveAspectRatio="xMidYMid meet">
<metadata>
Created by potrace 1.15, written by Peter Selinger 2001-2017
</metadata>
<g transform="translate(0.000000,660.000000) scale(0.100000,-0.100000)"
fill="#000000" stroke="none">
<path d="M440 3277 l0 -1974 827 -6 c454 -4 2437 -7 4405 -7 l3578 0 -2 1978
-3 1977 -4402 3 -4403 2 0 -1973z m1034 1386 c3 -10 26 -126 51 -258 25 -132
61 -316 79 -410 19 -93 48 -248 67 -344 22 -117 35 -168 41 -155 4 10 44 186
88 389 45 204 102 466 128 583 l46 212 323 0 323 0 1 -1292 c0 -711 2 -1288 5
-1283 2 6 47 278 99 605 52 327 108 678 125 780 16 102 64 399 105 660 41 261
77 487 81 503 l6 27 329 0 c181 0 329 -3 329 -7 0 -5 52 -341 115 -748 64
-407 120 -767 124 -800 5 -33 28 -179 51 -325 51 -325 64 -412 87 -562 9 -65
21 -118 25 -118 4 0 7 574 5 1275 l-2 1276 460 -3 460 -3 70 -41 c132 -79 216
-172 290 -324 l37 -75 -7 60 c-3 33 -16 135 -29 228 l-22 167 263 0 263 0 5
-22 c3 -13 21 -122 40 -243 20 -121 69 -422 110 -670 40 -247 77 -474 81 -503
4 -29 9 -50 12 -47 3 3 62 335 131 737 l127 733 742 3 742 2 0 -275 0 -275
-220 0 -220 0 0 -300 0 -300 210 0 210 0 0 -305 0 -305 -205 0 -205 0 0 -280
0 -280 215 0 215 0 0 -295 0 -295 -480 0 -480 0 -2 1381 -3 1380 -94 -533
c-51 -293 -158 -902 -237 -1353 -79 -451 -147 -832 -150 -848 l-6 -27 -296 2
-296 3 -152 906 c-83 498 -153 912 -156 920 -3 8 -8 -6 -12 -31 -13 -80 -54
-226 -90 -320 -48 -124 -106 -219 -181 -298 l-63 -67 184 -544 c101 -300 184
-550 184 -558 0 -10 -50 -13 -254 -13 l-254 0 -30 78 c-16 42 -96 256 -178
475 l-149 399 -5 -474 -5 -473 -514 -3 c-283 -1 -519 2 -523 6 -6 6 -58 247
-58 269 0 2 -90 3 -200 3 l-199 0 -44 -137 -43 -138 -495 0 -494 0 -5 517 -5
517 -85 -357 c-47 -196 -103 -429 -125 -517 l-40 -160 -132 -3 c-119 -2 -132
-1 -137 15 -3 10 -53 234 -111 498 -58 264 -110 489 -115 500 -5 12 -9 -181
-9 -491 l-1 -512 -262 -4 c-145 -3 -266 -3 -270 -1 -5 2 -8 659 -8 1459 l0
1454 334 0 c310 0 335 -1 340 -17z m7096 -1153 l0 -1170 208 -2 207 -3 0 -295
0 -295 -455 0 -455 0 -3 1468 -2 1467 250 0 250 0 0 -1170z"/>
<path d="M4670 3720 l0 -430 25 0 c48 0 130 39 172 82 130 135 156 379 64 583
-50 109 -152 195 -231 195 l-30 0 0 -430z"/>
<path d="M3371 3475 c-1 -11 -82 -568 -106 -727 -23 -154 -36 -138 120 -138
96 0 135 3 135 12 0 16 -140 841 -144 853 -3 7 -5 7 -5 0z"/>
</g>
</svg>
